# xmcd CD Database Entry
#
# Track frame offsets:
# 183
# 13120
# 41020
# 42830
# 56658
# 69458
# 84258
# 98368
# 115608
# 129708
# 147438
# 162755
# 180783
# 195915
# 208418
# 220140
# 236358
# 245883
# 254635
# 263038
# 273108
# 282493
# 290938
# 303605
#
# Disc length: 4164 seconds
#
# Revision: 3
# Processed by: cddbd v1.4b41PL1 Copyright (c) Steve Scherf et al.
# Submitted via: tcd 2.0b
#
DISCID=64104218
DTITLE=Telemann - Tafelmusik
DYEAR=1900
DGENRE=
TTITLE0=Quatuor G-dur - Largo - Allegro - Largo
TTITLE1=Quatuor G-dur - Vivace - Moderator - Vivace D.c.
TTITLE2=Quatuor G-dur - Grave
TTITLE3=Quatuor G-dur - Vivace
TTITLE4=Trio Es-dur - Affettuoso
TTITLE5=Trio Es-dur - (attacca) Vivace
TTITLE6=Trio Es-dur - Grave
TTITLE7=Trio Es-dur - Allegro
TTITLE8=Quatuor d-moll - Andante
TTITLE9=Quatuor d-moll - Vivace
TTITLE10=Quatuor d-moll - Largo
TTITLE11=Quatuor d-moll - Allegro
TTITLE12=Trio e-moll - Affettuoso
TTITLE13=Trio e-moll - Allegro
TTITLE14=Trio e-moll - Dolce
TTITLE15=Trio e-moll - Vivace
TTITLE16=Quatuor e-moll - Adagio
TTITLE17=Quatuor e-moll - Allegro
TTITLE18=Quatuor e-moll - Dolce
TTITLE19=Quatuor e-moll - Allegro
TTITLE20=Trio D-dur - Andante
TTITLE21=Trio D-dur - Allegro
TTITLE22=Trio D-dur - Grave - Largo - Grave
TTITLE23=Trio D-dur - Vivace
EXTD=Trios and Quartette
EXTT0=
EXTT1=
EXTT2=
EXTT3=
EXTT4=
EXTT5=
EXTT6=
EXTT7=
EXTT8=
EXTT9=
EXTT10=
EXTT11=
EXTT12=
EXTT13=
EXTT14=
EXTT15=
EXTT16=
EXTT17=
EXTT18=
EXTT19=
EXTT20=
EXTT21=
EXTT22=
EXTT23=
PLAYORDER=
